<svg  data-name="Layer 1" xmlns="http://www.w3.org/2000/svg" xmlns:xlink="http://www.w3.org/1999/xlink" width="80" height="79" viewBox="0 0 80 79"><defs><pattern id="SVGID_1_" data-name="SVGID 1 " width="80" height="79" patternTransform="matrix(1, 0, 0, -1, 1, 146)" patternUnits="userSpaceOnUse" viewBox="0 0 80 79"><rect width="80" height="79" fill="none"/><rect width="80" height="79" fill="none"/><line x1="85.8" x2="80" y2="-5.8" fill="none" stroke="#484949" stroke-miterlimit="10" stroke-width="0.5"/><line x1="80" y1="-5.8" x2="74.2" fill="none" stroke="#484949" stroke-miterlimit="10" stroke-width="0.5"/><line x1="5.8" y2="-5.8" fill="none" stroke="#484949" stroke-miterlimit="10" stroke-width="0.5"/><line y1="-5.8" x2="-5.8" fill="none" stroke="#484949" stroke-miterlimit="10" stroke-width="0.5"/><line x1="80" y1="5.8" x2="85.8" fill="none" stroke="#484949" stroke-miterlimit="10" stroke-width="0.5"/><line x1="85.8" y1="79" x2="80" y2="73.2" fill="none" stroke="#484949" stroke-miterlimit="10" stroke-width="0.5"/><polygon points="46.3 74.4 75.4 45.3 63.8 45.3 46.3 62.8 46.3 74.4" fill="none" stroke="#484949" stroke-miterlimit="10" stroke-width="0.5"/><polygon points="75.4 33.6 46.3 4.5 46.3 16.1 63.8 33.6 75.4 33.6" fill="none" stroke="#484949" stroke-miterlimit="10" stroke-width="0.5"/><polygon points="34.6 62.7 17.1 45.3 5.5 45.3 34.6 74.4 34.6 62.7" fill="none" stroke="#484949" stroke-miterlimit="10" stroke-width="0.5"/><polygon points="34.6 4.5 5.5 33.6 17.1 33.6 34.6 16.1 34.6 4.5" fill="none" stroke="#484949" stroke-miterlimit="10" stroke-width="0.5"/><polygon points="75.4 22 57.9 4.5 69.6 4.5 75.4 10.4 75.4 22" fill="none" stroke="#484949" stroke-miterlimit="10" stroke-width="0.5"/><polygon points="5.5 57 22.8 74.4 11.1 74.4 5.5 68.7 5.5 57" fill="none" stroke="#484949" stroke-miterlimit="10" stroke-width="0.5"/><polygon points="58.1 74.4 75.4 57 75.4 68.6 69.7 74.4 58.1 74.4" fill="none" stroke="#484949" stroke-miterlimit="10" stroke-width="0.5"/><polygon points="23.1 4.5 5.5 22.1 5.5 10.4 11.4 4.5 23.1 4.5" fill="none" stroke="#484949" stroke-miterlimit="10" stroke-width="0.5"/><path d="M40.5,22,23,39.5,40.5,57,58,39.5Zm5.8,17.5-5.8,5.8-5.8-5.8,5.8-5.8Z" fill="none" stroke="#484949" stroke-miterlimit="10" stroke-width="0.5"/><line x1="74.2" x2="80" y2="5.8" fill="none" stroke="#484949" stroke-miterlimit="10" stroke-width="0.5"/><line y1="5.8" x2="5.8" fill="none" stroke="#484949" stroke-miterlimit="10" stroke-width="0.5"/><line x1="80" y1="73.2" x2="74.2" y2="79" fill="none" stroke="#484949" stroke-miterlimit="10" stroke-width="0.5"/><line x1="5.8" y1="79" y2="73.2" fill="none" stroke="#484949" stroke-miterlimit="10" stroke-width="0.5"/><line x1="-5.8" y2="5.8" fill="none" stroke="#484949" stroke-miterlimit="10" stroke-width="0.5"/><line y1="73.2" x2="-5.8" y2="79" fill="none" stroke="#484949" stroke-miterlimit="10" stroke-width="0.5"/><line x1="80" y1="84.8" x2="85.8" y2="79" fill="none" stroke="#484949" stroke-miterlimit="10" stroke-width="0.5"/><line x1="74.2" y1="79" x2="80" y2="84.8" fill="none" stroke="#484949" stroke-miterlimit="10" stroke-width="0.5"/><line y1="84.8" x2="5.8" y2="79" fill="none" stroke="#484949" stroke-miterlimit="10" stroke-width="0.5"/><line x1="-5.8" y1="79" y2="84.8" fill="none" stroke="#484949" stroke-miterlimit="10" stroke-width="0.5"/></pattern></defs><title>tile</title><rect width="80" height="79" fill="url(#SVGID_1_)"/></svg>