<svg xmlns="http://www.w3.org/2000/svg" viewBox="0 0 674.38 84.02"><path d="M0 0v84.02h84.02V0zm15.01 45.54V15.33a.322.322 0 0 1 .32-.32h52.9a.323.323 0 0 1 .23.55l-7.16 7.16H23.49a.322.322 0 0 0-.32.32v22.5a.316.316 0 0 1-.32.32h-7.51a.313.313 0 0 1-.33-.32zm54 23.15a.322.322 0 0 1-.32.32h-52.9a.323.323 0 0 1-.23-.55l7.16-7.16h37.81a.316.316 0 0 0 .32-.32V46.19a.322.322 0 0 0-.32-.32h-21.6a.323.323 0 0 1-.23-.55l7.16-7.16h22.82a.322.322 0 0 1 .32.32v30.21zM115.44 50.6h1.4c2.56 5.07 5.07 6.81 8.21 6.81a5.136 5.136 0 0 0 5.41-4.98c0-7.49-14.69-8.7-14.69-18.12 0-5.41 5.17-9.08 10.44-9.08a22.21 22.21 0 0 1 8.02 1.98v6.09h-1.4c-2.32-4.25-4.25-5.46-7.25-5.46-2.85 0-4.93 1.98-4.93 4.4 0 7.1 14.93 8.17 14.93 17.93 0 5.85-4.88 9.81-11.02 9.81a20.619 20.619 0 0 1-8.7-2.03zM166.03 49.05c0-3.48-.82-4.69-3.77-5.61v-1.01h11.79v1.01c-2.32.92-2.95 1.55-2.95 5.56v8.79a39.937 39.937 0 0 1-11.74 2.17c-9.13 0-17.49-5.8-17.49-17.2 0-12.23 10.1-17.54 18.46-17.54a31.346 31.346 0 0 1 10 1.84v7.3h-1.26c-2.75-5.32-5.75-6.52-9.13-6.52-6.57 0-12.03 4.54-12.03 14.59 0 10.29 5.56 14.74 12.52 14.74a19.79 19.79 0 0 0 5.61-1.01v-7.11zM193.67 59.25v-.97c3.04-.92 3.72-1.79 3.72-5.46V32.33c0-3.62-.68-4.49-3.72-5.41v-1.01h22.18v6.96h-1.21c-2.9-4.3-2.95-4.35-6.57-4.35h-5.22v12.81h5.85c2.08 0 2.8-.82 4.16-2.9h1.01v8.46h-1.01c-1.35-2.03-2.08-3.04-4.16-3.04h-5.85v8.99c0 3.62.87 4.54 4.4 5.46v.97h-13.58zM223.38 59.25v-.97c3.09-.92 3.82-1.64 3.82-5.27V32.19c0-3.62-.72-4.35-3.82-5.27v-1.01h13v1.01c-3.09.92-3.77 1.64-3.77 5.27v20.83c0 3.62.68 4.35 3.77 5.27v.97h-13zM273.39 59.64L251.65 31.8v17.4c0 7.06.73 8.02 3.67 9.08v.97h-10.78v-.97c2.95-1.06 3.62-1.93 3.62-9.08V30.88c0-1.69-1.21-3.09-4.45-3.96v-1.01h10.2l19.57 24.84V35.96c0-7.01-.77-7.97-3.67-9.04v-1.01h10.73v1.01c-2.9 1.06-3.62 1.88-3.62 9.04v23.68zM305.04 59.25v-.97c1.84-.43 2.61-.92 2.61-2.51s-1.02-4.93-2.37-9.23h-10.97c-1.4 4.49-2.27 7.25-2.27 8.94 0 1.74.97 2.22 3 2.8v.97h-11.02v-.97c2.61-.92 3.62-2.17 6.96-12.23l6.67-20.15h6.38l6.57 20.25c3.14 9.76 4.01 11.36 6.57 12.23v.87zm-.68-15.56c-1.5-4.83-3.09-9.67-4.59-14.5l-4.59 14.5zM351.28 59.64L329.53 31.8v17.4c0 7.06.73 8.02 3.67 9.08v.97h-10.78v-.97c2.95-1.06 3.62-1.93 3.62-9.08V30.88c0-1.69-1.21-3.09-4.45-3.96v-1.01h10.2l19.57 24.84V35.96c0-7.01-.77-7.97-3.67-9.04v-1.01h10.73v1.01c-2.9 1.06-3.62 1.88-3.62 9.04v23.68zM391.62 57.9c-1.93 1.06-6.47 2.08-10.24 2.08-9.81 0-17.98-5.65-17.98-16.91 0-12.37 9.52-17.83 18.12-17.83a28.877 28.877 0 0 1 9.81 1.93v6.57h-1.35c-2.46-5.27-5.7-5.94-8.99-5.94-6.48 0-11.55 5.03-11.55 14.69 0 9.96 5.41 14.93 12.18 14.93 3.62 0 6.77-.73 9.38-6.48h1.4zM399.59 59.25v-.97c3.09-.92 3.82-1.64 3.82-5.27V32.19c0-3.62-.72-4.35-3.82-5.27v-1.01h13v1.01c-3.09.92-3.77 1.64-3.77 5.27v20.83c0 3.62.68 4.35 3.77 5.27v.97h-13zM439.36 59.25v-.97c1.84-.43 2.61-.92 2.61-2.51s-1.01-4.93-2.37-9.23h-10.97c-1.4 4.49-2.27 7.25-2.27 8.94 0 1.74.97 2.22 3 2.8v.97h-11.02v-.97c2.61-.92 3.62-2.17 6.96-12.23l6.67-20.15h6.38l6.57 20.25c3.14 9.76 4.01 11.36 6.57 12.23v.87zm-.68-15.56c-1.5-4.83-3.09-9.67-4.59-14.5l-4.59 14.5zM457.38 59.25v-.97c3.09-.92 3.72-2.13 3.72-5.75V32.67c0-3.62-.63-4.83-3.72-5.75v-1.01h12.9v1.01c-3.09.92-3.72 2.13-3.72 5.75v24.02H471c3.96 0 4.25-.05 8.46-5.27h1.02l-.92 7.83zM525.46 49.05c0-3.48-.82-4.69-3.77-5.61v-1.01h11.79v1.01c-2.32.92-2.95 1.55-2.95 5.56v8.79a39.937 39.937 0 0 1-11.74 2.17c-9.13 0-17.49-5.8-17.49-17.2 0-12.23 10.1-17.54 18.46-17.54a31.346 31.346 0 0 1 10 1.84v7.3h-1.26c-2.75-5.32-5.75-6.52-9.13-6.52-6.57 0-12.03 4.54-12.03 14.59 0 10.29 5.56 14.74 12.52 14.74a19.79 19.79 0 0 0 5.61-1.01v-7.11zM565.42 59.25c-5.32 0-5.61-.34-9.08-5.94l-5.51-8.79h-2.56v8.46c0 3.67.63 4.4 3.72 5.32v.97h-12.85v-.97c3.09-.92 3.72-1.64 3.72-5.32V32.19c0-3.62-.63-4.35-3.72-5.27v-1.01h13.82c7.06 0 11.11 2.85 11.11 8.75 0 5.03-4.16 7.64-7.92 8.7l6.96 10.15c2.61 3.82 3.33 4.16 5.7 4.78v.97h-3.39zm-15.37-17.11c3.91 0 8.46-1.01 8.46-7.1 0-4.11-2.66-6.67-5.99-6.67h-4.25v13.77zM571.69 42.63c0-10.82 8.17-17.4 16.87-17.4 8.65 0 16.87 6.48 16.87 17.3 0 10.78-7.92 17.44-16.87 17.44-9.09.01-16.87-6.28-16.87-17.34zm27.69 0c0-8.41-4.01-14.84-10.83-14.84-6.86 0-10.87 6.33-10.87 14.84 0 8.36 4.06 14.79 10.87 14.79 6.77-.01 10.83-6.43 10.83-14.79zM636.1 35.96c0-7.1-.82-7.97-3.77-9.08v-.97h10.97v.97c-2.95 1.11-3.77 1.88-3.77 9.08v14.11c0 6.48-5.99 9.91-13.39 9.91-7.1 0-12.52-3.19-12.52-9.91V32.33c0-3.67-.68-4.49-3.77-5.46v-.97h12.95v.97c-3.04.97-3.72 1.79-3.72 5.46v18.03c0 3.62 2.51 6.33 7.92 6.33 5.32 0 9.08-2.27 9.08-7.01V35.96zM649.15 59.25v-.97c3.09-.92 3.72-1.64 3.72-5.32V32.19c0-3.62-.63-4.35-3.72-5.27v-1.01h14.4c7.15 0 10.83 3 10.83 8.99 0 6.81-4.88 10.1-11.26 10.1h-4.78v7.97c0 3.62.87 4.4 4.45 5.32v.97h-13.64zm11.45-16.72c6.43 0 8.31-3.29 8.31-7.54 0-3.33-1.59-6.62-6.28-6.62h-4.3v14.16z" fill="#fff"/></svg>