<svg data-name="Layer 1" xmlns="http://www.w3.org/2000/svg" viewBox="0 0 247.89 31.04"><path fill="#fff" d="M0 31.04h31.04V0H0v31.04z"/><path d="M5.54 16.82V5.66a.13.13 0 0 1 .12-.12H25.2a.13.13 0 0 1 .09.21l-2.65 2.64h-14a.12.12 0 0 0-.12.12v8.31a.12.12 0 0 1-.12.12H5.66a.12.12 0 0 1-.12-.12M25.49 25.37a.12.12 0 0 1-.12.12H5.83a.12.12 0 0 1-.08-.2l2.64-2.65h14a.12.12 0 0 0 .12-.12v-5.46a.12.12 0 0 0-.12-.12h-8a.12.12 0 0 1-.08-.2l2.64-2.65h8.43a.12.12 0 0 1 .12.12z" fill="#282929"/><path d="M42.64 18.69h.52c1 1.88 1.87 2.52 3 2.52a1.9 1.9 0 0 0 2-1.84c.03-2.77-5.4-3.19-5.4-6.69 0-2 1.91-3.36 3.85-3.36a8.16 8.16 0 0 1 3 .73v2.25h-.51c-.86-1.57-1.57-2-2.68-2a1.7 1.7 0 0 0-1.82 1.62c0 2.62 5.51 3 5.51 6.62 0 2.16-1.8 3.62-4.06 3.62a7.64 7.64 0 0 1-3.29-.75zM61.4 18.12c0-1.28-.3-1.73-1.39-2.07v-.37h4.35v.37c-.85.34-1.09.57-1.09 2.05v3.25a14.57 14.57 0 0 1-4.33.8c-3.38 0-6.46-2.14-6.46-6.35 0-4.51 3.73-6.48 6.81-6.48a11.57 11.57 0 0 1 3.7.68v2.69h-.47c-1-2-2.12-2.4-3.37-2.4-2.39 0-4.39 1.67-4.39 5.39s2 5.44 4.62 5.44a7.12 7.12 0 0 0 2.07-.38zM70.89 21.89v-.36c1.13-.34 1.38-.66 1.38-2v-7.58c0-1.34-.25-1.66-1.38-2v-.38h8.2v2.61h-.45c-1.07-1.59-1.09-1.6-2.43-1.6h-1.92v4.73h2.16c.76 0 1-.31 1.53-1.08h.37v3.13h-.37c-.5-.75-.77-1.13-1.53-1.13h-2.16v3.32c0 1.34.32 1.68 1.62 2v.36zM81.89 21.89v-.36c1.52-.34 1.88-.61 1.88-2v-7.64c0-1.34-.36-1.6-1.88-1.94v-.38h6.4v.38c-1.52.34-1.86.6-1.86 1.94v7.69c0 1.34.34 1.61 1.86 2v.36zM99.76 22.03l-8-10.28v6.43c0 2.61.27 3 1.36 3.36v.36h-4v-.36c1.09-.39 1.34-.71 1.34-3.36v-6.77c0-.62-.45-1.14-1.64-1.46v-.38h3.76l7.18 9.18v-5.47c0-2.58-.28-2.94-1.35-3.33v-.38h4v.38c-1.07.39-1.34.69-1.34 3.33v8.75zM111.36 16.18c-.56-1.79-1.15-3.57-1.7-5.35l-1.7 5.35zm.25 5.75v-.36c.67-.16 1-.34 1-.93a16.74 16.74 0 0 0-.88-3.41h-4.05a15.3 15.3 0 0 0-.84 3.3c0 .65.36.83 1.11 1v.36h-4.07v-.36c1-.34 1.34-.8 2.57-4.52l2.46-7.44h2.36l2.43 7.48c1.16 3.61 1.48 4.19 2.42 4.52v.32zM128.51 22.03l-8-10.28v6.43c0 2.61.27 3 1.36 3.36v.36h-4v-.36c1.09-.39 1.34-.71 1.34-3.36v-6.77c0-.62-.45-1.14-1.64-1.46v-.38h3.76l7.23 9.18v-5.47c0-2.58-.28-2.94-1.35-3.33v-.38h4v.38c-1.07.39-1.34.69-1.34 3.33v8.75zM144.12 21.39a9.57 9.57 0 0 1-3.78.76c-3.62 0-6.64-2.08-6.64-6.24 0-4.57 3.52-6.59 6.69-6.59a10.48 10.48 0 0 1 3.63.72v2.42h-.5a3.23 3.23 0 0 0-3.32-2.19c-2.39 0-4.27 1.85-4.27 5.42s2 5.52 4.5 5.52c1.34 0 2.5-.27 3.46-2.39h.52zM146.89 21.89v-.36c1.52-.34 1.88-.61 1.88-2v-7.64c0-1.34-.36-1.6-1.88-1.94v-.38h6.4v.38c-1.52.34-1.86.6-1.86 1.94v7.69c0 1.34.34 1.61 1.86 2v.36zM161.08 16.18c-.55-1.79-1.14-3.57-1.7-5.35l-1.69 5.35zm.25 5.75v-.36c.68-.16 1-.34 1-.93a16.51 16.51 0 0 0-.87-3.41h-4a14.7 14.7 0 0 0-.84 3.3c0 .65.35.83 1.1 1v.36h-4.16v-.36c1-.34 1.34-.8 2.57-4.52l2.47-7.44h2.35l2.43 7.48c1.16 3.61 1.48 4.19 2.43 4.52v.32zM167.65 21.89v-.36c1.14-.34 1.37-.79 1.37-2.12v-7.34c0-1.34-.23-1.78-1.37-2.12v-.38h4.76v.38c-1.14.34-1.37.78-1.37 2.12v8.87h1.64c1.46 0 1.57 0 3.12-1.94h.38l-.34 2.89zM191.9 18.12c0-1.28-.3-1.73-1.39-2.07v-.37h4.35v.37c-.85.34-1.09.57-1.09 2.05v3.25a14.57 14.57 0 0 1-4.33.8c-3.38 0-6.46-2.14-6.46-6.35 0-4.51 3.73-6.48 6.81-6.48a11.52 11.52 0 0 1 3.7.68v2.69h-.46c-1-2-2.13-2.4-3.38-2.4-2.43 0-4.44 1.67-4.44 5.39s2.05 5.44 4.62 5.44a7.12 7.12 0 0 0 2.07-.38zM201.07 15.57c1.45 0 3.13-.38 3.13-2.63a2.25 2.25 0 0 0-2.22-2.46h-1.57v5.09zm5.69 6.32c-2 0-2.07-.13-3.36-2.2l-2-3.25h-.95v3.13c0 1.35.24 1.62 1.38 2v.36h-4.75v-.36c1.14-.34 1.37-.61 1.37-2v-7.68c0-1.34-.23-1.6-1.37-1.94v-.38h5.11c2.6 0 4.1 1 4.1 3.23 0 1.86-1.53 2.82-2.93 3.21l2.57 3.75c1 1.41 1.23 1.54 2.11 1.77v.36zM219.83 15.75c0-3.11-1.48-5.48-4-5.48s-4 2.34-4 5.48 1.5 5.46 4 5.46 4-2.38 4-5.46m-10.22 0a6.23 6.23 0 1 1 12.45 0 6.16 6.16 0 0 1-6.23 6.43 6 6 0 0 1-6.22-6.4M233.66 13.28c0-2.62-.3-2.94-1.39-3.35v-.36h4.05v.36c-1.09.41-1.39.69-1.39 3.35v5.22c0 2.39-2.21 3.65-4.94 3.65s-4.63-1.17-4.63-3.65v-6.55c0-1.36-.24-1.66-1.39-2v-.36h4.79v.36c-1.13.36-1.38.66-1.38 2v6.65c0 1.34.93 2.34 2.93 2.34s3.35-.84 3.35-2.59zM242.76 15.71c2.38 0 3.07-1.21 3.07-2.78a2.19 2.19 0 0 0-2.32-2.45h-1.55v5.23zm-4.23 6.18v-.36c1.14-.34 1.38-.61 1.38-2v-7.64c0-1.34-.24-1.6-1.38-1.94v-.38h5.32c2.64 0 4 1.11 4 3.32 0 2.52-1.8 3.73-4.16 3.73h-1.73v2.95c0 1.34.32 1.62 1.65 2v.36z" fill="#fff"/></svg>