<svg data-name="Layer 1" xmlns="http://www.w3.org/2000/svg" width="40" height="40"><path d="M0 0v40h40V0zm7.146 21.681V7.3a.152.152 0 0 1 .154-.154h25.183a.153.153 0 0 1 .109.262l-3.408 3.408h-18a.153.153 0 0 0-.152.153v10.712a.151.151 0 0 1-.149.152H7.3a.15.15 0 0 1-.157-.141zM32.854 32.7a.152.152 0 0 1-.152.152H7.517a.153.153 0 0 1-.109-.262l3.408-3.408h18a.151.151 0 0 0 .152-.149V21.99a.152.152 0 0 0-.152-.152H18.534a.154.154 0 0 1-.11-.262l3.409-3.409H32.7a.153.153 0 0 1 .152.152V32.7z" fill="#22292f"/></svg>