<svg data-name="Layer 1" xmlns="http://www.w3.org/2000/svg" width="175.278" height="31.633"><defs><mask id="316420578__a" x="0" y="0" width="175.578" height="31.633" maskUnits="userSpaceOnUse"><path d="M0 31.633h175.578V0H0z" fill="#fff" fill-rule="evenodd"/></mask></defs><path d="M43.034 19.482h.526c.96 1.91 1.9 2.565 3.079 2.565a1.928 1.928 0 0 0 2.028-1.873c0-2.82-5.505-3.275-5.505-6.823 0-2.037 1.937-3.42 3.912-3.42a8.3 8.3 0 0 1 3.006.746v2.292h-.525c-.87-1.6-1.594-2.055-2.717-2.055a1.731 1.731 0 0 0-1.847 1.655c0 2.675 5.6 3.075 5.6 6.75 0 2.2-1.83 3.693-4.13 3.693a7.689 7.689 0 0 1-3.26-.765zm19.876 3l-2.137-8.06-2.355 8.06h-2.264l-2.046-7.6c-1-3.676-1.322-4.13-2.246-4.567v-.384h4.51v.382c-.652.237-.851.455-.851 1.092a16.776 16.776 0 0 0 .633 3.256l1.558 6.313 1.72-6.222a12.794 12.794 0 0 0 .562-2.947c0-.891-.416-1.183-1.159-1.492v-.382h4.256v.382c-.652.255-.978.528-.978 1.165a12.913 12.913 0 0 0 .49 2.692l1.756 6.53 1.775-5.767a13.71 13.71 0 0 0 .688-3.256c0-.8-.326-1.074-1.032-1.365v-.381h4.166v.382c-.924.437-1.269.819-2.5 4.6l-2.463 7.568zm8.814 0v-.362c1.16-.345 1.431-.618 1.431-1.983V12.3c0-1.364-.272-1.637-1.43-1.983v-.386H76.6v.382c-1.16.346-1.413.619-1.413 1.983v7.841c0 1.365.254 1.638 1.413 1.983v.364zm6.621-3h.525c.96 1.91 1.9 2.565 3.08 2.565a1.929 1.929 0 0 0 2.028-1.873c0-2.82-5.506-3.275-5.506-6.823 0-2.037 1.938-3.42 3.912-3.42a8.315 8.315 0 0 1 3.007.746v2.292h-.526c-.87-1.6-1.594-2.055-2.717-2.055a1.732 1.732 0 0 0-1.848 1.655c0 2.675 5.6 3.075 5.6 6.75 0 2.2-1.829 3.693-4.129 3.693a7.682 7.682 0 0 1-3.26-.765zm11.035 0h.525c.96 1.91 1.9 2.565 3.079 2.565a1.928 1.928 0 0 0 2.028-1.873c0-2.82-5.506-3.275-5.506-6.823 0-2.037 1.938-3.42 3.913-3.42a8.31 8.31 0 0 1 3.006.746v2.292H95.9c-.87-1.6-1.594-2.055-2.717-2.055a1.731 1.731 0 0 0-1.847 1.655c0 2.675 5.6 3.075 5.6 6.75 0 2.2-1.83 3.693-4.13 3.693a7.689 7.689 0 0 1-3.26-.765l-.163-2.765zm23.4-.582c0-1.31-.308-1.765-1.412-2.11v-.382h4.419v.382c-.87.345-1.105.582-1.105 2.092v3.31a14.939 14.939 0 0 1-4.4.82c-3.423 0-6.557-2.184-6.557-6.477 0-4.6 3.786-6.6 6.92-6.6a11.755 11.755 0 0 1 3.748.692v2.746h-.47c-1.033-2-2.156-2.455-3.424-2.455-2.463 0-4.51 1.71-4.51 5.494 0 3.875 2.083 5.548 4.691 5.548a7.324 7.324 0 0 0 2.1-.382V18.9zm5.289 3.584v-.364c1.16-.345 1.394-.8 1.394-2.165v-7.477c0-1.364-.235-1.82-1.394-2.165v-.382h4.836v.382c-1.16.346-1.395.8-1.395 2.165v9.042h1.666c1.485 0 1.594-.018 3.17-1.983h.38l-.344 2.947zm20.309-6c0-3.165-1.5-5.585-4.057-5.585-2.572 0-4.075 2.384-4.075 5.585 0 3.148 1.521 5.567 4.075 5.567 2.536 0 4.057-2.42 4.057-5.567M128 16.48a6.324 6.324 0 1 1 12.642-.036 6.269 6.269 0 0 1-6.321 6.567 6.145 6.145 0 0 1-6.321-6.53m18.258 5.039c1.5 0 2.717-.728 2.717-2.4a2.679 2.679 0 0 0-2.934-2.638h-1.323v5.04zm-.4-5.95a2.28 2.28 0 0 0 2.481-2.491c0-1.383-.815-2.184-2.59-2.184h-1.033v4.676h1.142zm-4.619 6.914v-.364c1.16-.327 1.45-.655 1.45-2.056V12.3c0-1.4-.29-1.674-1.45-2v-.369h4.89c2.482 0 4.239.746 4.239 3.129a2.875 2.875 0 0 1-2.156 2.747 3.274 3.274 0 0 1 2.88 3.039c0 2.656-2.39 3.638-4.8 3.638zm18.661-5.858c-.56-1.82-1.158-3.639-1.72-5.458l-1.72 5.458zm.255 5.858v-.364c.688-.164.977-.345.977-.946a17.017 17.017 0 0 0-.887-3.475h-4.111a15.083 15.083 0 0 0-.852 3.366c0 .655.363.837 1.123 1.055v.364h-4.13v-.364c.979-.345 1.36-.818 2.609-4.6l2.5-7.586h2.39l2.463 7.623c1.177 3.675 1.5 4.275 2.463 4.6v.328zm6.465 0v-.364c1.16-.345 1.395-.8 1.395-2.165v-7.477c0-1.364-.235-1.82-1.394-2.165v-.382h4.835v.382c-1.159.346-1.394.8-1.394 2.165v9.042h1.666c1.485 0 1.594-.018 3.17-1.983h.38l-.344 2.947h-8.314z" fill="#f0f0f0" fill-rule="evenodd"/><g mask="url(#316420578__a)"><path d="M0 31.633h31.492V0H0zM25.66 5.859l-2.686 2.7H8.8a.122.122 0 0 0-.122.122v8.469a.122.122 0 0 1-.121.122h-2.81a.122.122 0 0 1-.121-.122V5.772a.121.121 0 0 1 .121-.121h19.826a.122.122 0 0 1 .086.208zm.206 20a.122.122 0 0 1-.121.123H5.919a.122.122 0 0 1-.119-.122.12.12 0 0 1 .036-.087l2.684-2.695h14.169a.121.121 0 0 0 .12-.122V17.39a.121.121 0 0 0-.12-.122h-8.1a.123.123 0 0 1-.124-.12.126.126 0 0 1 .038-.09l2.683-2.695h8.554a.122.122 0 0 1 .121.122V25.86z" fill="#f0f0f0" fill-rule="evenodd"/></g></svg>