<svg data-name="Layer 1" xmlns="http://www.w3.org/2000/svg" width="80" height="79"><defs><pattern id="2087422865__a" data-name="SVGID 1" width="80" height="79" patternTransform="matrix(1 0 0 -1 1 146)" patternUnits="userSpaceOnUse"><path fill="none" d="M0 0h80v79H0z"/><path fill="none" d="M0 0h80v79H0z"/><path fill="none" stroke="#484949" stroke-miterlimit="10" stroke-width=".5" d="M85.8 0L80-5.8M80-5.8L74.2 0M5.8 0L0-5.8M0-5.8L-5.8 0M80 5.8L85.8 0M85.8 79L80 73.2M46.3 74.4l29.1-29.1H63.8L46.3 62.8v11.6zM75.4 33.6L46.3 4.5v11.6l17.5 17.5h11.6zM34.6 62.7L17.1 45.3H5.5l29.1 29.1V62.7zM34.6 4.5L5.5 33.6h11.6l17.5-17.5V4.5zM75.4 22L57.9 4.5h11.7l5.8 5.9V22zM5.5 57l17.3 17.4H11.1l-5.6-5.7V57zM58.1 74.4L75.4 57v11.6l-5.7 5.8H58.1zM23.1 4.5L5.5 22.1V10.4l5.9-5.9h11.7zM40.5 22L23 39.5 40.5 57 58 39.5zm5.8 17.5l-5.8 5.8-5.8-5.8 5.8-5.8zM74.2 0L80 5.8M0 5.8L5.8 0M80 73.2L74.2 79M5.8 79L0 73.2M-5.8 0L0 5.8M0 73.2L-5.8 79M80 84.8l5.8-5.8M74.2 79l5.8 5.8M0 84.8L5.8 79M-5.8 79L0 84.8"/></pattern></defs><path fill="url(#2087422865__a)" d="M0 0h80v79H0z"/></svg>